<svg width="1128" height="1128" viewBox="0 0 1128 1128" fill="none" xmlns="http://www.w3.org/2000/svg">
<g clip-path="url(#clip0_848_2628)">
<rect width="1128" height="1128" fill="#FFB700"/>
<path fill-rule="evenodd" clip-rule="evenodd" d="M355.069 86.044C345.082 95.691 332.135 110.904 326.957 120.179C321.778 129.455 315.119 144.297 312.16 153.573C310.518 158.72 308.648 165.125 306.93 171.01C305.552 175.729 304.27 180.12 303.283 183.256C301.433 190.305 298.104 218.133 295.885 244.477C294.035 270.821 291.446 326.105 290.706 366.919C289.596 412.928 290.336 450.403 292.925 465.244C295.145 478.601 300.323 499.379 304.762 511.624C308.831 523.868 315.859 540.565 319.928 548.727C323.997 556.89 332.135 570.99 338.424 580.266C344.342 589.542 354.699 602.528 360.988 609.206C367.276 616.256 380.593 627.016 390.95 633.695C400.937 640.003 420.912 648.908 435.338 653.36C449.764 657.812 467.89 663.007 476.028 665.233C484.165 667.459 494.153 669.315 498.222 668.944C502.291 668.944 507.839 671.541 510.059 674.88C514.128 679.333 513.758 682.301 509.319 689.722C505.25 696.4 498.592 700.111 485.275 702.708C474.918 704.563 456.423 706.418 443.476 706.418C430.899 706.418 412.404 709.387 402.047 713.097C391.69 716.807 377.633 723.857 370.605 728.68C363.577 733.504 355.809 739.441 353.959 741.667C351.74 743.522 344.712 752.798 338.424 762.074C332.135 771.35 324.367 787.304 320.668 797.322C317.339 807.711 312.16 826.634 309.201 839.992C306.242 853.349 304.022 875.611 304.022 890.082C304.022 904.552 306.612 925.33 309.571 936.461C312.53 947.592 319.558 966.144 325.107 977.275C330.656 988.406 342.122 1004.36 350.26 1012.52C358.398 1020.69 368.756 1030.33 373.564 1034.04C378.003 1037.38 387.99 1043.32 395.389 1047.4C403.157 1051.11 418.323 1056.31 428.68 1058.53C440.147 1060.76 483.056 1062.61 530.403 1062.61C598.835 1062.24 616.221 1061.13 631.387 1055.94C641.375 1052.6 662.459 1040.72 677.625 1030.33C692.791 1019.57 712.026 1004.73 720.164 996.94C728.302 989.149 741.988 973.194 750.866 961.692C759.374 949.818 773.43 935.719 781.938 930.525C792.542 924.093 796.61 919.641 794.144 917.167C791.678 914.694 787.61 914.817 781.938 917.538C777.499 919.765 772.69 920.878 770.841 919.765C769.361 918.652 770.101 914.199 772.32 909.376C774.91 904.923 778.609 894.534 780.828 886.371C783.048 878.209 784.897 851.865 784.897 828.118C784.897 801.404 783.417 784.336 781.198 784.336C779.348 784.336 775.279 788.788 772.32 794.725C767.511 804.743 767.142 804.372 764.552 782.481C763.073 770.237 760.483 757.25 758.634 753.911C756.784 750.201 753.455 747.974 751.606 749.088C749.756 750.201 747.907 755.024 747.907 760.219C747.907 765.413 746.057 773.947 743.468 779.884C740.878 785.449 734.59 796.58 729.411 804.372C724.233 812.535 706.847 828.86 690.571 840.734C674.296 852.978 651.732 867.077 640.635 872.643C629.538 877.837 610.302 884.516 598.096 887.113C585.889 889.711 550.008 891.937 518.566 891.937C477.137 891.937 460.122 890.824 456.423 887.484C453.833 884.887 451.984 879.692 451.984 876.353C451.984 872.643 456.053 867.819 461.231 865.964C466.41 863.738 495.633 862.625 526.704 862.996C564.804 863.738 588.108 862.254 598.096 858.915C606.234 856.317 620.29 850.752 629.537 846.299C638.785 841.847 655.431 828.86 666.528 817.729C677.995 806.598 690.941 789.531 695.38 779.884C699.819 769.866 704.628 753.169 706.108 742.78C707.587 729.051 706.477 717.178 702.408 703.821C698.709 693.061 692.051 677.477 686.873 669.315C681.694 661.152 677.625 653.731 677.625 652.618C677.625 651.505 684.653 649.278 693.161 647.052C702.039 645.197 719.054 637.776 731.261 630.356C743.468 623.306 762.333 607.722 773.06 595.849C783.787 584.347 798.583 563.198 805.612 548.727C812.64 534.257 820.038 516.076 822.257 507.913C823.614 502.922 825.663 494.463 827.811 485.59L827.816 485.569L827.843 485.456L827.851 485.426L827.856 485.403C829.206 479.827 830.597 474.083 831.875 468.954C836.314 451.516 837.793 426.656 837.793 378.05C837.793 318.313 837.053 307.182 828.176 272.305C822.997 250.785 815.969 219.988 812.64 203.663C809.311 187.337 802.652 163.22 797.474 149.862C792.295 136.505 781.938 116.098 774.54 104.596C762.703 86.044 759.374 83.0757 749.756 83.4467C741.618 83.4467 735.33 87.5282 724.973 99.0303C717.205 107.564 704.998 127.6 697.23 143.555L683.173 172.867C657.28 169.527 637.306 166.188 622.139 163.22C606.973 159.88 576.271 157.283 553.707 157.283C531.513 157.283 496.372 159.88 476.028 162.849C455.683 165.817 438.667 168.043 438.667 167.301C438.297 166.93 432.749 155.057 426.461 140.586C419.802 126.116 409.445 105.709 402.787 95.3199C396.129 84.5599 387.251 74.1708 382.442 71.9446C375.044 68.6053 371.715 70.4604 355.069 86.044ZM737.18 180.658C734.025 177.495 732.365 175.829 732.278 174.085C732.182 172.148 734.026 170.113 737.919 165.817C742.358 160.993 748.277 157.283 750.866 157.283C754.565 157.283 756.785 163.591 757.894 178.803C758.634 190.305 759.004 200.323 758.264 201.065C757.524 201.807 753.455 201.436 748.647 200.323C743.468 198.839 741.248 196.242 742.358 192.532C743.468 189.563 740.879 183.998 737.18 180.658ZM361.728 158.396C358.768 162.849 354.329 175.835 352.11 186.966C349.891 198.097 349.151 208.857 351.001 210.341C352.48 212.197 360.988 209.599 369.496 204.776C378.373 200.323 385.401 194.016 385.401 191.789C385.401 189.192 381.702 186.966 376.894 186.966C369.866 186.595 369.496 186.224 374.674 182.143C378.003 179.545 379.853 175.464 379.113 173.238C378.743 170.64 380.593 168.414 383.552 168.414C386.511 168.414 389.1 167.301 389.1 165.817C389.47 163.962 386.511 159.88 382.812 156.541C379.113 152.831 373.934 149.862 371.715 149.862C369.126 149.862 364.687 153.573 361.728 158.396ZM741.249 804.372C744.578 796.58 748.647 786.562 750.126 782.481C752.346 776.915 753.455 779.883 754.565 793.612C754.935 804.001 753.825 817.358 751.606 823.295C749.386 829.602 747.907 835.539 747.907 837.394C747.907 838.878 750.126 839.991 752.346 839.991C754.935 839.991 760.853 833.313 765.292 825.15C770.101 816.987 774.91 811.051 776.389 812.164C778.239 813.277 777.129 828.118 774.17 844.815C771.581 861.511 767.142 882.661 764.552 891.937C762.333 901.213 758.264 912.344 755.675 917.167C752.346 923.475 752.715 926.072 756.784 928.298C760.853 930.153 754.195 939.058 730.152 964.289C712.396 982.841 690.572 1003.25 681.324 1009.18C672.077 1015.49 662.089 1022.17 659.13 1024.03C654.691 1026.62 654.321 1026.25 657.28 1021.8L658.096 1020.49L658.102 1020.48C660.589 1016.5 666.067 1007.73 670.967 999.537C676.885 990.262 681.324 980.614 681.324 978.388C681.324 975.049 678.365 975.42 662.089 986.551L671.707 966.144C676.885 955.013 681.324 943.511 681.324 941.285C681.324 938.687 680.584 936.461 679.475 936.461C678.365 936.461 673.556 939.429 668.378 943.14C663.199 946.479 658.02 948.334 657.28 946.85C656.171 944.995 660.24 940.543 666.528 936.461C672.446 932.38 677.625 927.185 677.625 925.33C677.625 923.475 670.597 921.62 662.089 921.62C653.581 921.62 648.033 920.506 649.143 919.022C650.622 917.167 648.773 914.199 645.074 911.601C639.525 907.891 641.375 906.778 675.776 896.389L665.418 891.566C659.87 888.597 655.061 885.629 655.061 884.516C655.061 883.403 663.939 876.724 674.666 869.674C685.393 862.625 703.518 848.154 714.615 837.765C725.713 827.376 737.55 812.164 741.249 804.372ZM541.501 444.837C540.021 448.176 541.871 453.371 546.309 457.823C550.378 462.276 556.297 465.615 559.256 465.615C562.215 465.615 568.874 462.276 574.052 457.823C579.027 453.831 581.326 451.986 581.236 450.268C581.159 448.792 579.32 447.408 575.902 444.837C571.833 441.498 562.955 439.271 556.297 439.271C549.269 439.271 542.98 441.498 541.501 444.837Z" fill="#FAF8F6"/>
</g>
<defs>
<clipPath id="clip0_848_2628">
<rect width="1128" height="1128" fill="white"/>
</clipPath>
</defs>
</svg>
