<svg width="36" height="13" viewBox="0 0 36 13" fill="none" xmlns="http://www.w3.org/2000/svg">
<path d="M36 9.89999V12.9985L0 13V9.89999C2.90433 9.89607 5.80727 8.60874 7.79919 6.03749C13.0029 -0.679228 22.9749 -0.679154 28.1786 6.03749C30.1754 8.6151 33.0881 9.9024 36 9.89999Z" fill="#FFF0F7"/>
<path fill-rule="evenodd" clip-rule="evenodd" d="M7.79919 6.03749C5.80727 8.60874 2.90433 9.89607 0 9.89999V8.90037C2.60742 8.89674 5.21289 7.74247 7.00781 5.42479C12.6133 -1.80834 23.3652 -1.80819 28.9688 5.42479C30.7695 7.74818 33.3848 8.90248 36 8.90037V9.89999C33.0879 9.9024 30.1758 8.6147 28.1797 6.03709L27.9316 5.72752C22.6641 -0.677723 12.9222 -0.574263 7.79919 6.03749Z" fill="#555DFB"/>
</svg>
